<?xml version="1.0" encoding="UTF-8" standalone="no"?><!DOCTYPE svg PUBLIC "-//W3C//DTD SVG 1.1//EN" "http://www.w3.org/Graphics/SVG/1.1/DTD/svg11.dtd"><svg width="100%" height="100%" viewBox="0 0 155 151" version="1.1" xmlns="http://www.w3.org/2000/svg" xmlns:xlink="http://www.w3.org/1999/xlink" xml:space="preserve" xmlns:serif="http://www.serif.com/" style="fill-rule:evenodd;clip-rule:evenodd;stroke-linejoin:round;stroke-miterlimit:2;"><rect id="Artboard1" x="0" y="0" width="154.217" height="150.839" style="fill:none;"/><path d="M46.853,145.492c-10.393,0 -18.83,-8.437 -18.83,-18.83l0,-51.491l-26.11,0l75.196,-69.825l75.195,69.825l-26.109,0l0,51.491c0,10.393 -8.438,18.83 -18.831,18.83l-60.511,0Zm30.153,-69.258c-2.204,-4.259 -6.719,-7.181 -11.925,-7.181c-7.373,0 -12.901,5.873 -13.358,13.076c-0.27,4.246 1.168,8.065 5.994,14.897c4.127,5.843 14.857,14.063 19.392,17.407c4.534,-3.344 15.265,-11.564 19.391,-17.407c4.826,-6.832 6.265,-10.651 5.995,-14.897c-0.458,-7.203 -5.986,-13.076 -13.358,-13.076c-5.29,0 -9.865,3.016 -12.028,7.385l-0.103,-0.204Z" style="fill:#4173e8;"/></svg>