<?xml version="1.0" encoding="UTF-8" standalone="no"?><!DOCTYPE svg PUBLIC "-//W3C//DTD SVG 1.1//EN" "http://www.w3.org/Graphics/SVG/1.1/DTD/svg11.dtd"><svg width="100%" height="100%" viewBox="0 0 162 162" version="1.1" xmlns="http://www.w3.org/2000/svg" xmlns:xlink="http://www.w3.org/1999/xlink" xml:space="preserve" xmlns:serif="http://www.serif.com/" style="fill-rule:evenodd;clip-rule:evenodd;stroke-linejoin:round;stroke-miterlimit:2;"><path d="M49.915,151.348c-10.392,0 -18.83,-8.437 -18.83,-18.83l0,-51.491l-26.109,0l75.195,-69.825l75.195,69.825l-26.109,0l0,51.491c0,10.393 -8.438,18.83 -18.83,18.83l-60.512,0Zm30.153,-69.258c-2.204,-4.259 -6.718,-7.181 -11.925,-7.181c-7.373,0 -12.9,5.873 -13.358,13.076c-0.27,4.246 1.169,8.064 5.994,14.897c4.127,5.843 14.857,14.063 19.392,17.407c4.535,-3.344 15.265,-11.564 19.392,-17.407c4.825,-6.833 6.264,-10.651 5.994,-14.897c-0.458,-7.203 -5.986,-13.076 -13.358,-13.076c-5.289,0 -9.865,3.016 -12.028,7.385l-0.103,-0.204Z" style="fill:#e42323;"/></svg>